<svg width="14" height="15" viewBox="0 0 14 15" fill="none" xmlns="http://www.w3.org/2000/svg">
<path d="M13.3535 9.6465L12 8.293V6.5C11.9984 5.26092 11.5375 4.06642 10.7063 3.14749C9.87512 2.22856 8.73271 1.65047 7.5 1.525V0.5H6.5V1.525C5.26729 1.65047 4.12488 2.22856 3.29368 3.14749C2.46249 4.06642 2.00155 5.26092 2 6.5V8.293L0.6465 9.6465C0.552725 9.74025 0.500028 9.8674 0.5 10V11.5C0.5 11.6326 0.552678 11.7598 0.646447 11.8536C0.740215 11.9473 0.867392 12 1 12H4.5V12.3885C4.4889 13.0229 4.7124 13.639 5.12763 14.1187C5.54286 14.5985 6.12059 14.908 6.75 14.988C7.09759 15.0225 7.44854 14.9838 7.78029 14.8745C8.11204 14.7652 8.41724 14.5877 8.67626 14.3533C8.93528 14.119 9.14238 13.833 9.28425 13.5138C9.42612 13.1946 9.49961 12.8493 9.5 12.5V12H13C13.1326 12 13.2598 11.9473 13.3536 11.8536C13.4473 11.7598 13.5 11.6326 13.5 11.5V10C13.5 9.8674 13.4473 9.74025 13.3535 9.6465ZM8.5 12.5C8.5 12.8978 8.34196 13.2794 8.06066 13.5607C7.77936 13.842 7.39782 14 7 14C6.60218 14 6.22064 13.842 5.93934 13.5607C5.65804 13.2794 5.5 12.8978 5.5 12.5V12H8.5V12.5ZM12.5 11H1.5V10.207L2.8535 8.8535C2.94727 8.75975 2.99997 8.6326 3 8.5V6.5C3 5.43913 3.42143 4.42172 4.17157 3.67157C4.92172 2.92143 5.93913 2.5 7 2.5C8.06087 2.5 9.07828 2.92143 9.82843 3.67157C10.5786 4.42172 11 5.43913 11 6.5V8.5C11 8.6326 11.0527 8.75975 11.1465 8.8535L12.5 10.207V11Z" fill="black"/>
</svg>
